# xmcd
#
# Track frame offsets: 
#        150
#        17959
#        34631
#        49238
#        66800
#        91954
#        107489
#        128608
#        148615
#        169292
#        184762
#        198794
#
# Disc length: 2983 seconds
#
# Revision: 0
# Processed by: cddbd v1.5.2PL0 Copyright (c) Steve Scherf et al.
# Submitted via: ExactAudioCopy v0.95b4
#
DISCID=9f0ba50c
DTITLE=Steve Diggle - Some Reality
DYEAR=2003
DGENRE=Blues
TTITLE0=Just because
TTITLE1=Playing with fire
TTITLE2=Where you're from
TTITLE3=Time of your life
TTITLE4=Blowing hot
TTITLE5=Three sheets to the wind
TTITLE6=What else can you do
TTITLE7=Something in your mind
TTITLE8=Heavy hammer
TTITLE9=All around your face
TTITLE10=Turning point
TTITLE11=Somethings they never last
EXTD=
EXTT0=
EXTT1=
EXTT2=
EXTT3=
EXTT4=
EXTT5=
EXTT6=
EXTT7=
EXTT8=
EXTT9=
EXTT10=
EXTT11=
PLAYORDER=
